<svg width="950" height="541" viewBox="0 0 950 541" fill="none" xmlns="http://www.w3.org/2000/svg">
<path fill-rule="evenodd" clip-rule="evenodd" d="M220.967 3.30118C216.216 6.18687 211.464 9.06501 206.705 11.9356C193.236 20.0715 179.767 28.23 166.32 36.4036C161.199 39.5159 152.466 44.8265 146.914 48.2032C136.081 54.7905 125.256 61.3701 114.438 67.9423C89.9627 82.8165 79.7117 89.0411 76.4256 91.0052C73.3586 92.8408 60.6978 100.539 42.7642 111.469C41.3516 112.338 34.8474 116.297 28.3131 120.278C7.90922 132.704 5.93758 133.928 5.93758 134.192C5.93758 134.328 8.47579 135.915 11.5806 137.72C14.6853 139.518 24.0827 145.048 32.4679 150.003C59.542 165.988 82.333 179.404 92.2667 185.213C101.173 190.426 114.083 198.048 131.866 208.594C135.696 210.86 139.246 212.703 139.805 212.711C140.455 212.718 155.797 203.366 183.854 185.848L226.905 158.97V79.4851C226.905 35.769 226.769 0.0151088 226.61 0.0226625C226.444 0.0377699 223.906 1.51084 220.967 3.30118ZM250.504 17.5181C250.368 27.1497 250.081 56.0369 249.877 81.7211C249.666 107.405 249.386 135.205 249.258 143.484L249.031 158.555L255.089 164.485C262.19 171.435 277.578 186.18 283.531 191.748C285.82 193.886 290.186 198.071 293.23 201.047C296.282 204.023 303.414 210.875 309.072 216.284C314.737 221.692 321.861 228.537 324.913 231.498C327.965 234.459 334.869 241.129 340.263 246.319L350.068 255.762L351.942 254.024C354.223 251.909 362.601 244.31 374.838 233.25C381.448 227.267 388.051 221.277 394.638 215.271C400.5 209.931 407.17 203.887 409.459 201.855C412.096 199.498 414.732 197.126 417.353 194.747C419.408 192.881 423.102 189.527 425.565 187.291C428.035 185.062 432.061 181.414 434.516 179.178C436.971 176.949 442.086 172.364 445.885 168.987C449.685 165.618 454.172 161.531 455.872 159.914C458.856 157.074 458.931 156.953 458.259 156.213C457.881 155.79 453.651 152.496 448.862 148.885C444.065 145.274 438.543 141.082 436.586 139.579C434.622 138.068 428.209 133.21 422.324 128.769C416.447 124.334 405.758 116.251 398.566 110.805C384.817 100.387 334.152 62.2691 313.627 46.9039C297.975 35.1798 282.33 23.4406 266.7 11.6939C258.791 5.74873 252.053 0.778081 251.207 0.279505C250.882 0.0830969 250.693 4.70625 250.504 17.5181ZM698.127 0.672322C697.205 1.30687 681.87 12.7363 653.391 34.0165C646.532 39.1458 633.728 48.7698 624.934 55.4099C616.141 62.0425 606.676 69.1661 603.896 71.2359C599.326 74.6428 592.202 80.0063 561.917 102.858C553.789 108.992 545.668 115.141 537.563 121.305C529.503 127.416 520.06 134.578 516.57 137.214C511.033 141.407 504.785 146.173 494.3 154.196C492.721 155.405 491.346 156.53 491.241 156.704C491.029 157.051 493.091 159.031 500.925 166.018C503.856 168.632 508.502 172.817 511.244 175.317C513.986 177.825 519.425 182.72 523.323 186.203C527.221 189.685 535.304 196.99 541.287 202.429C547.262 207.868 553.162 213.217 554.394 214.304C555.625 215.392 566.382 225.16 578.295 236L599.968 255.724L609.947 246.062C621.565 234.814 626.4 230.176 650.218 207.408C659.91 198.146 670.426 188.069 673.583 185.009C676.741 181.957 684.084 174.94 689.893 169.425C695.71 163.911 700.537 159.197 700.627 158.947C700.824 158.426 700.287 93.2034 699.947 75.7911C699.819 69.2567 699.698 49.8425 699.675 32.6492C699.653 15.4558 699.517 1.07269 699.373 0.68743C699.132 0.0302162 699.064 0.0302153 698.127 0.672322ZM723.086 79.47V158.932L751.89 176.896C767.739 186.777 782.839 196.227 785.453 197.904C797.389 205.534 809.491 212.915 810.065 212.915C810.82 212.915 814.393 210.905 828.021 202.822C845.841 192.246 860.043 183.876 870 178.082C875.333 174.977 887.54 167.809 897.127 162.143C906.705 156.477 916.261 150.849 918.361 149.633C920.461 148.417 927.177 144.481 933.296 140.893C944.098 134.54 944.386 134.344 943.562 133.709C942.739 133.074 935.033 128.353 906.426 110.941C883.567 97.0183 841.286 71.3492 807.829 51.0662C800.562 46.6546 793.302 42.2354 786.05 37.8087C762.723 23.5615 723.6 0 723.26 0C723.161 0 723.086 35.7615 723.086 79.47ZM0 270.87V396.103L9.20854 390.664C14.2698 387.673 21.5294 383.382 25.3443 381.138C29.1516 378.887 33.5179 376.296 35.0438 375.382C36.5698 374.461 40.9361 371.877 44.7434 369.633C48.5583 367.39 54.8811 363.643 58.8017 361.316C62.7223 358.99 68.607 355.515 71.8704 353.596C75.1414 351.677 81.9099 347.673 86.9184 344.697C91.9268 341.721 100.304 336.75 105.532 333.653C110.759 330.556 119.092 325.6 124.047 322.647L133.052 317.268V223.8L121.668 217.092C102.639 205.859 83.5945 194.649 64.5429 183.438C53.4534 176.911 42.3638 170.369 31.2818 163.827C12.3737 152.655 0.3626 145.637 0.143529 145.637C0.0604329 145.637 0 201.991 0 270.87ZM938.705 152.013C932.82 155.48 923.113 161.229 917.122 164.779C907.544 170.452 896.537 176.934 866.238 194.732C859.25 198.834 848.531 205.156 823.972 219.66L816.954 223.8L816.931 317.298L830.098 325.117C837.343 329.415 847.012 335.171 851.582 337.906C857.188 341.245 862.793 344.569 868.413 347.877C880.794 355.16 906.909 370.57 929.398 383.873C940.178 390.249 949.22 395.544 949.492 395.65C949.892 395.801 949.991 370.661 949.991 270.742C949.991 201.938 949.855 145.652 949.689 145.667C949.53 145.69 944.582 148.538 938.705 152.013ZM471.585 174.041C469.243 176.201 466.878 178.339 464.499 180.469C462.429 182.32 460.646 183.922 460.54 184.027C460.435 184.133 458.652 185.742 456.582 187.585C454.512 189.436 451.838 191.853 450.637 192.964C449.443 194.067 447.57 195.774 446.482 196.749C441.602 201.13 400.062 238.856 395.794 242.776C393.18 245.186 387.484 250.353 383.14 254.274C372.723 263.663 365.501 270.387 365.501 270.689C365.501 270.817 369.898 274.927 375.269 279.822C380.647 284.709 388.368 291.735 392.432 295.436C408.349 309.933 431.585 331.047 435.793 334.831C436.662 335.609 439.6 338.291 442.327 340.784C465.806 362.283 474.908 370.449 475.256 370.321C475.407 370.276 482.425 363.907 490.863 356.18C499.308 348.452 507.203 341.268 508.419 340.202C509.635 339.145 511.788 337.173 513.208 335.829C514.621 334.484 518.64 330.805 522.137 327.662C530.492 320.154 545.064 306.873 551.024 301.351C554.122 298.488 557.234 295.64 560.369 292.823C562.9 290.556 568.845 285.14 573.581 280.789C578.325 276.438 582.835 272.328 583.598 271.663L584.996 270.455L583.81 269.488C583.16 268.959 575.787 262.296 567.417 254.682C550.624 239.392 530.19 220.862 520.732 212.333C517.355 209.289 509.514 202.157 503.305 196.492C497.103 190.826 490.228 184.594 488.038 182.637C485.22 180.114 482.417 177.576 479.637 175.023C477.205 172.794 475.15 170.966 475.067 170.966C474.984 170.966 473.413 172.349 471.585 174.041ZM346.691 288.819C344.946 290.503 338.359 296.864 332.044 302.96C325.729 309.049 316.815 317.691 312.244 322.155C300.022 334.084 285.812 347.885 270.462 362.729C267.086 365.992 261.828 371.076 258.783 374.03C255.732 376.984 252.362 380.202 251.29 381.191L249.341 382.982L249.809 426.871C250.066 451.007 250.361 472.71 250.466 475.105C250.565 477.5 250.768 488.363 250.92 499.248C251.071 510.134 251.214 519.395 251.252 519.826C251.282 520.264 251.343 525.204 251.38 530.809L251.456 541H252.393C253.722 541 260.43 536.12 289.076 514.326C293.54 510.927 300.226 505.85 303.927 503.04C307.629 500.23 312.35 496.642 314.42 495.063C330.775 482.599 342.302 473.79 346.495 470.55C350.642 467.354 354.805 464.174 358.967 460.994C363.107 457.836 370.056 452.51 374.415 449.149C378.766 445.795 382.951 442.569 383.714 441.98C385.339 440.733 399.903 429.5 409.852 421.825C413.667 418.887 419.37 414.528 422.528 412.141C432.175 404.836 438.361 400.107 442.917 396.549C445.311 394.683 449.814 391.231 452.918 388.882C456.023 386.532 458.561 384.455 458.561 384.266C458.561 384.085 455.056 380.753 450.773 376.878C436.783 364.225 433.013 360.81 427.075 355.394C423.857 352.455 419.242 348.278 416.824 346.125C414.407 343.964 409.663 339.681 406.286 336.607C401.414 332.18 396.534 327.753 391.639 323.349C384.462 316.883 373.554 306.994 353.777 289.015C351.791 287.21 350.098 285.737 350.015 285.744C349.932 285.744 348.436 287.127 346.691 288.819ZM596.365 288.774C593.985 290.926 591.605 293.079 589.241 295.24C585.547 298.602 581.853 301.963 578.151 305.325C574.117 308.989 565.12 317.162 558.156 323.5C551.183 329.838 542.632 337.589 539.142 340.731C531.278 347.825 520.649 357.517 516.97 360.946C515.444 362.366 512.596 364.942 510.632 366.665C508.676 368.387 505.994 370.789 504.687 371.99C503.373 373.199 499.845 376.387 496.846 379.076C493.839 381.758 491.437 384.107 491.505 384.289C491.611 384.568 497.488 389.146 515.981 403.348C518.481 405.274 524.751 410.094 529.903 414.067C556.244 434.343 574.571 448.424 587.262 458.108C594.99 464.008 605.059 471.713 609.63 475.233C623.061 485.575 624.912 486.988 636.757 496C643.752 501.325 650.747 506.651 657.742 511.977C688.08 535.085 696.216 541 697.674 541C698.391 541 698.437 540.328 698.693 523.293C698.845 513.548 699.132 496.672 699.328 485.794C699.524 474.909 699.902 447.328 700.174 424.499L700.658 382.989L695.143 377.603C692.106 374.634 682.943 365.796 674.777 357.962C666.618 350.129 656.458 340.331 652.213 336.191C645.149 329.332 638.094 322.473 631.023 315.614C623.658 308.467 616.292 301.306 608.942 294.145C604.191 289.521 600.179 285.737 600.021 285.744C599.862 285.744 598.215 287.112 596.365 288.774ZM135.31 330.684C132.954 332.097 128.058 334.998 124.417 337.135C120.784 339.281 114.869 342.771 111.273 344.894C107.677 347.024 102.246 350.234 99.1939 352.025C90.0231 357.403 63.5231 373.078 58.0161 376.372C51.1191 380.496 26.3263 395.121 16.2339 401.029C6.86675 406.505 5.85449 407.17 6.14155 407.639C6.26241 407.827 8.26427 409.127 10.6061 410.517C12.9403 411.914 17.2537 414.536 20.1923 416.341C24.4604 418.955 28.7361 421.568 33.0193 424.167C39.3422 428.005 53.7178 436.767 71.674 447.706C73.963 449.103 81.8042 453.9 89.1015 458.365C96.3913 462.837 104.678 467.883 107.511 469.575C110.344 471.267 115.602 474.478 119.19 476.706C122.786 478.935 133.12 485.25 142.162 490.742C151.197 496.226 161.448 502.466 164.93 504.589C168.413 506.719 176.609 511.712 183.143 515.686C189.678 519.652 197.428 524.366 200.375 526.156C225.258 541.295 224.752 541 226.097 541H226.905V382.445L224.231 380.738C216.503 375.783 205.406 368.795 192.647 360.848C184.813 355.96 172.87 348.512 166.116 344.304C142.479 329.566 140.077 328.086 139.835 328.101C139.699 328.108 137.66 329.272 135.31 330.684ZM804.24 331.576C801.287 333.464 795.53 337.06 791.451 339.56C787.379 342.061 781.064 345.996 777.423 348.293C773.782 350.597 765.012 356.104 757.933 360.546C747.743 366.929 727.769 379.507 723.781 382.053C723.124 382.468 723.086 386.698 723.086 461.749V541H723.94C724.914 541 727.822 539.429 735.165 534.942C737.99 533.204 746.995 527.75 755.161 522.81C763.327 517.862 773.215 511.864 777.136 509.469C781.057 507.067 792.819 499.898 803.273 493.522C813.728 487.146 825.4 480.023 829.207 477.681C835.409 473.889 841.611 470.104 847.82 466.319C854.158 462.459 860.496 458.599 866.827 454.724C871.707 451.747 876.594 448.779 881.482 445.825C885.508 443.392 894.067 438.188 900.488 434.267C906.917 430.346 919.298 422.815 928.008 417.535C936.726 412.254 944 407.797 944.174 407.631C944.476 407.359 939.921 404.556 922.471 394.305C918.762 392.13 907.446 385.444 897.323 379.461C888.877 374.461 880.432 369.475 871.979 364.489C867.091 361.611 862.211 358.74 857.324 355.862C853.078 353.354 848.176 350.476 846.438 349.456C842.827 347.349 829.063 339.22 817.853 332.58C813.676 330.11 810.11 328.101 809.929 328.116C809.755 328.131 807.194 329.695 804.24 331.576Z" fill="black"/>
</svg>
